<svg xmlns="http://www.w3.org/2000/svg" xmlns:xlink="http://www.w3.org/1999/xlink" xmlns:lucid="lucid" width="642" height="726"><g transform="translate(-926 -202)" lucid:page-tab-id="0_0"><path d="M980.5 218.45h200v232h-200z" fill="#fff"/><path d="M980.5 290.45h200v32h-200zM980.5 354.45h200v32h-200zM980.5 418.45h200v32h-200z" fill="#e6e6e6"/><path d="M980.5 218.45h200v40h-200z" fill="#ccc"/><path d="M980.5 218.45h200v232h-200zM980.5 258.45h200" stroke="#333" fill="none"/><use xlink:href="#a" transform="matrix(1,0,0,1,985.5,260.9500819182722) translate(0 17.1)"/><use xlink:href="#b" transform="matrix(1,0,0,1,985.5,292.9500819182722) translate(0 17.1)"/><use xlink:href="#c" transform="matrix(1,0,0,1,985.5,324.9500819182722) translate(0 17.1)"/><use xlink:href="#d" transform="matrix(1,0,0,1,985.5,356.9500819182722) translate(0 17.1)"/><use xlink:href="#e" transform="matrix(1,0,0,1,985.5,388.9500819182722) translate(0 17.1)"/><use xlink:href="#f" transform="matrix(1,0,0,1,985.5,420.9500819182722) translate(0 17.1)"/><path d="M980.5 218.55h200v40h-200z" stroke="#333" fill="#489bfc"/><use xlink:href="#g" transform="matrix(1,0,0,1,985.3,223.3479551035678) translate(0 19.359722222222224)"/><path d="M1351.85 481.2h200v232h-200z" fill="#fff"/><path d="M1351.85 553.2h200v32h-200zM1351.85 617.2h200v32h-200zM1351.85 681.2h200v32h-200z" fill="#e6e6e6"/><path d="M1351.85 481.2h200v40h-200z" fill="#ccc"/><path d="M1351.85 481.2h200v232h-200zM1351.85 521.2h200" stroke="#333" fill="none"/><use xlink:href="#a" transform="matrix(1,0,0,1,1356.8490566037362,523.7000819182722) translate(0 17.1)"/><use xlink:href="#h" transform="matrix(1,0,0,1,1356.8490566037362,555.7000819182722) translate(0 17.1)"/><use xlink:href="#i" transform="matrix(1,0,0,1,1356.8490566037362,587.7000819182722) translate(0 17.1)"/><use xlink:href="#j" transform="matrix(1,0,0,1,1356.8490566037362,619.7000819182722) translate(0 17.1)"/><use xlink:href="#k" transform="matrix(1,0,0,1,1356.8490566037362,651.7000819182722) translate(0 17.1)"/><use xlink:href="#l" transform="matrix(1,0,0,1,1356.8490566037362,683.7000819182722) translate(0 17.1)"/><path d="M1351.85 481.2h200v40h-200z" stroke="#333" fill="#489bfc"/><use xlink:href="#m" transform="matrix(1,0,0,1,1356.6490566037362,486.0000819182722) translate(0 19.359722222222224)"/><path d="M1201 274.15h53.17c6.63 0 12 5.37 12 12v367.4c0 6.62 5.38 12 12 12h53.77" stroke="#333" fill="none"/><path d="M1201 284.15v-20M1181 274.15h20M1351.13 675.54l-20-10 20-10M1351.13 665.54h-20" stroke="#333" fill="#fff"/><path d="M980.5 481.2h200v200h-200z" fill="#fff"/><path d="M980.5 553.2h200v32h-200zM980.5 617.2h200v32h-200z" fill="#e6e6e6"/><path d="M980.5 481.2h200v40h-200z" fill="#ccc"/><path d="M980.5 481.2h200v200h-200zM980.5 521.2h200" stroke="#333" fill="none"/><use xlink:href="#a" transform="matrix(1,0,0,1,985.5,523.7000819182722) translate(0 17.1)"/><use xlink:href="#b" transform="matrix(1,0,0,1,985.5,555.7000819182722) translate(0 17.1)"/><use xlink:href="#n" transform="matrix(1,0,0,1,985.5,587.7000819182722) translate(0 17.1)"/><use xlink:href="#e" transform="matrix(1,0,0,1,985.5,619.7000819182722) translate(0 17.1)"/><use xlink:href="#o" transform="matrix(1,0,0,1,985.5,651.7000819182722) translate(0 17.1)"/><path d="M980.5 481.3h200v40h-200z" stroke="#333" fill="#489bfc"/><use xlink:href="#p" transform="matrix(1,0,0,1,985.3,486.0979551035678) translate(0 19.359722222222224)"/><path d="M960 274.15h-8c-6.63 0-12 5.37-12 12v367.47c0 6.63 5.37 12 12 12h8.6" stroke="#333" fill="none"/><path d="M960 264.15v20M980 274.15h-20M979.78 675.62l-20-10 20-10M979.78 665.62h-20" stroke="#333" fill="#fff"/><path d="M980.5 709.48h200v200h-200z" fill="#fff"/><path d="M980.5 781.48h200v32h-200zM980.5 845.48h200v32h-200z" fill="#e6e6e6"/><path d="M980.5 709.48h200v40h-200z" fill="#ccc"/><path d="M980.5 709.48h200v200h-200zM980.5 749.48h200" stroke="#333" fill="none"/><use xlink:href="#a" transform="matrix(1,0,0,1,985.5,751.9825136882719) translate(0 17.1)"/><use xlink:href="#b" transform="matrix(1,0,0,1,985.5,783.9825136882719) translate(0 17.1)"/><use xlink:href="#q" transform="matrix(1,0,0,1,985.5,815.9825136882719) translate(0 17.1)"/><use xlink:href="#e" transform="matrix(1,0,0,1,985.5,847.9825136882719) translate(0 17.1)"/><use xlink:href="#o" transform="matrix(1,0,0,1,985.5,879.9825136882719) translate(0 17.1)"/><path d="M980.5 709.58h200v40h-200z" stroke="#333" fill="#489bfc"/><use xlink:href="#r" transform="matrix(1,0,0,1,985.3,714.3803868736838) translate(0 19.359722222222224)"/><path d="M960 274.15h-8c-6.63 0-12 5.37-12 12V881.9c0 6.63 5.37 12 12 12h8.6" stroke="#333" fill="none"/><path d="M960 264.15v20M980 274.15h-20M979.78 903.9l-20-10 20-10M979.78 893.9h-20" stroke="#333" fill="#fff"/><path d="M1201 765.26h53.17c6.63 0 12-5.37 12-12v-75.72c0-6.63 5.38-12 12-12h53.77" stroke="#333" fill="none"/><path d="M1201 775.26v-20M1181 765.26h20M1351.13 675.54l-20-10 20-10M1351.13 665.54h-20" stroke="#333" fill="#fff"/><path d="M1201 536.98h53.17c6.63 0 12 5.37 12 12V653.2c0 6.63 5.38 12 12 12h53.77" stroke="#333" fill="none"/><path d="M1201 546.98v-20M1181 536.98h20M1351.13 675.2l-20-10 20-10M1351.13 665.2h-20" stroke="#333" fill="#fff"/><defs><path fill="#333" d="M24-231v-30h32v30H24zM24 0v-190h32V0H24" id="s"/><path fill="#333" d="M85-194c31 0 48 13 60 33l-1-100h32l1 261h-30c-2-10 0-23-3-31C134-8 116 4 85 4 32 4 16-35 15-94c0-66 23-100 70-100zm9 24c-40 0-46 34-46 75 0 40 6 74 45 74 42 0 51-32 51-76 0-42-9-74-50-73" id="t"/><g id="a"><use transform="matrix(0.05,0,0,0.05,0,0)" xlink:href="#s"/><use transform="matrix(0.05,0,0,0.05,3.95,0)" xlink:href="#t"/></g><path d="M85-194c31 0 48 13 60 33l-1-100h32l1 261h-30c-2-10 0-23-3-31C134-8 116 4 85 4 32 4 16-35 15-94c0-66 23-100 70-100zm9 24c-40 0-46 34-46 75 0 40 6 74 45 74 42 0 51-32 51-76 0-42-9-74-50-73" id="u"/><path d="M141-36C126-15 110 5 73 4 37 3 15-17 15-53c-1-64 63-63 125-63 3-35-9-54-41-54-24 1-41 7-42 31l-33-3c5-37 33-52 76-52 45 0 72 20 72 64v82c-1 20 7 32 28 27v20c-31 9-61-2-59-35zM48-53c0 20 12 33 32 33 41-3 63-29 60-74-43 2-92-5-92 41" id="v"/><path d="M59-47c-2 24 18 29 38 22v24C64 9 27 4 27-40v-127H5v-23h24l9-43h21v43h35v23H59v120" id="w"/><path d="M100-194c63 0 86 42 84 106H49c0 40 14 67 53 68 26 1 43-12 49-29l28 8c-11 28-37 45-77 45C44 4 14-33 15-96c1-61 26-98 85-98zm52 81c6-60-76-77-97-28-3 7-6 17-6 28h103" id="x"/><path d="M-5 72V49h209v23H-5" id="y"/><path d="M96-169c-40 0-48 33-48 73s9 75 48 75c24 0 41-14 43-38l32 2c-6 37-31 61-74 61-59 0-76-41-82-99-10-93 101-131 147-64 4 7 5 14 7 22l-32 3c-4-21-16-35-41-35" id="z"/><path d="M114-163C36-179 61-72 57 0H25l-1-190h30c1 12-1 29 2 39 6-27 23-49 58-41v29" id="A"/><g id="b"><use transform="matrix(0.05,0,0,0.05,0,0)" xlink:href="#u"/><use transform="matrix(0.05,0,0,0.05,10,0)" xlink:href="#v"/><use transform="matrix(0.05,0,0,0.05,20,0)" xlink:href="#w"/><use transform="matrix(0.05,0,0,0.05,25,0)" xlink:href="#x"/><use transform="matrix(0.05,0,0,0.05,35,0)" xlink:href="#y"/><use transform="matrix(0.05,0,0,0.05,45,0)" xlink:href="#z"/><use transform="matrix(0.05,0,0,0.05,54,0)" xlink:href="#A"/><use transform="matrix(0.05,0,0,0.05,59.95,0)" xlink:href="#x"/><use transform="matrix(0.05,0,0,0.05,69.95,0)" xlink:href="#v"/><use transform="matrix(0.05,0,0,0.05,79.95,0)" xlink:href="#w"/><use transform="matrix(0.05,0,0,0.05,84.95,0)" xlink:href="#x"/><use transform="matrix(0.05,0,0,0.05,94.95,0)" xlink:href="#u"/></g><path fill="#333" d="M100-194c62-1 85 37 85 99 1 63-27 99-86 99S16-35 15-95c0-66 28-99 85-99zM99-20c44 1 53-31 53-75 0-43-8-75-51-75s-53 32-53 75 10 74 51 75" id="B"/><path fill="#333" d="M114-163C36-179 61-72 57 0H25l-1-190h30c1 12-1 29 2 39 6-27 23-49 58-41v29" id="C"/><path fill="#333" d="M100-194c63 0 86 42 84 106H49c0 40 14 67 53 68 26 1 43-12 49-29l28 8c-11 28-37 45-77 45C44 4 14-33 15-96c1-61 26-98 85-98zm52 81c6-60-76-77-97-28-3 7-6 17-6 28h103" id="D"/><path fill="#333" d="M-5 72V49h209v23H-5" id="E"/><path fill="#333" d="M117-194c89-4 53 116 60 194h-32v-121c0-31-8-49-39-48C34-167 62-67 57 0H25l-1-190h30c1 10-1 24 2 32 11-22 29-35 61-36" id="F"/><path fill="#333" d="M84 4C-5 8 30-112 23-190h32v120c0 31 7 50 39 49 72-2 45-101 50-169h31l1 190h-30c-1-10 1-25-2-33-11 22-28 36-60 37" id="G"/><path fill="#333" d="M210-169c-67 3-38 105-44 169h-31v-121c0-29-5-50-35-48C34-165 62-65 56 0H25l-1-190h30c1 10-1 24 2 32 10-44 99-50 107 0 11-21 27-35 58-36 85-2 47 119 55 194h-31v-121c0-29-5-49-35-48" id="H"/><path fill="#333" d="M115-194c53 0 69 39 70 98 0 66-23 100-70 100C84 3 66-7 56-30L54 0H23l1-261h32v101c10-23 28-34 59-34zm-8 174c40 0 45-34 45-75 0-40-5-75-45-74-42 0-51 32-51 76 0 43 10 73 51 73" id="I"/><g id="c"><use transform="matrix(0.05,0,0,0.05,0,0)" xlink:href="#B"/><use transform="matrix(0.05,0,0,0.05,10,0)" xlink:href="#C"/><use transform="matrix(0.05,0,0,0.05,15.949999999999998,0)" xlink:href="#t"/><use transform="matrix(0.05,0,0,0.05,25.950000000000003,0)" xlink:href="#D"/><use transform="matrix(0.05,0,0,0.05,35.95,0)" xlink:href="#C"/><use transform="matrix(0.05,0,0,0.05,41.900000000000006,0)" xlink:href="#E"/><use transform="matrix(0.05,0,0,0.05,51.900000000000006,0)" xlink:href="#F"/><use transform="matrix(0.05,0,0,0.05,61.900000000000006,0)" xlink:href="#G"/><use transform="matrix(0.05,0,0,0.05,71.9,0)" xlink:href="#H"/><use transform="matrix(0.05,0,0,0.05,86.85000000000001,0)" xlink:href="#I"/><use transform="matrix(0.05,0,0,0.05,96.85000000000001,0)" xlink:href="#D"/><use transform="matrix(0.05,0,0,0.05,106.85000000000001,0)" xlink:href="#C"/></g><path fill="#333" d="M96-169c-40 0-48 33-48 73s9 75 48 75c24 0 41-14 43-38l32 2c-6 37-31 61-74 61-59 0-76-41-82-99-10-93 101-131 147-64 4 7 5 14 7 22l-32 3c-4-21-16-35-41-35" id="J"/><path fill="#333" d="M135-143c-3-34-86-38-87 0 15 53 115 12 119 90S17 21 10-45l28-5c4 36 97 45 98 0-10-56-113-15-118-90-4-57 82-63 122-42 12 7 21 19 24 35" id="K"/><path fill="#333" d="M59-47c-2 24 18 29 38 22v24C64 9 27 4 27-40v-127H5v-23h24l9-43h21v43h35v23H59v120" id="L"/><path fill="#333" d="M101-234c-31-9-42 10-38 44h38v23H63V0H32v-167H5v-23h27c-7-52 17-82 69-68v24" id="M"/><g id="d"><use transform="matrix(0.05,0,0,0.05,0,0)" xlink:href="#J"/><use transform="matrix(0.05,0,0,0.05,9,0)" xlink:href="#G"/><use transform="matrix(0.05,0,0,0.05,19,0)" xlink:href="#K"/><use transform="matrix(0.05,0,0,0.05,28,0)" xlink:href="#L"/><use transform="matrix(0.05,0,0,0.05,33,0)" xlink:href="#B"/><use transform="matrix(0.05,0,0,0.05,43,0)" xlink:href="#H"/><use transform="matrix(0.05,0,0,0.05,57.95,0)" xlink:href="#D"/><use transform="matrix(0.05,0,0,0.05,67.95,0)" xlink:href="#C"/><use transform="matrix(0.05,0,0,0.05,73.9,0)" xlink:href="#E"/><use transform="matrix(0.05,0,0,0.05,83.9,0)" xlink:href="#C"/><use transform="matrix(0.05,0,0,0.05,89.85000000000001,0)" xlink:href="#D"/><use transform="matrix(0.05,0,0,0.05,99.85000000000001,0)" xlink:href="#M"/><use transform="matrix(0.05,0,0,0.05,104.85000000000001,0)" xlink:href="#D"/><use transform="matrix(0.05,0,0,0.05,114.85000000000001,0)" xlink:href="#C"/><use transform="matrix(0.05,0,0,0.05,120.80000000000001,0)" xlink:href="#D"/><use transform="matrix(0.05,0,0,0.05,130.8,0)" xlink:href="#F"/><use transform="matrix(0.05,0,0,0.05,140.8,0)" xlink:href="#J"/><use transform="matrix(0.05,0,0,0.05,149.8,0)" xlink:href="#D"/></g><path d="M135-143c-3-34-86-38-87 0 15 53 115 12 119 90S17 21 10-45l28-5c4 36 97 45 98 0-10-56-113-15-118-90-4-57 82-63 122-42 12 7 21 19 24 35" id="N"/><path d="M84 4C-5 8 30-112 23-190h32v120c0 31 7 50 39 49 72-2 45-101 50-169h31l1 190h-30c-1-10 1-25-2-33-11 22-28 36-60 37" id="O"/><path d="M115-194c53 0 69 39 70 98 0 66-23 100-70 100C84 3 66-7 56-30L54 0H23l1-261h32v101c10-23 28-34 59-34zm-8 174c40 0 45-34 45-75 0-40-5-75-45-74-42 0-51 32-51 76 0 43 10 73 51 73" id="P"/><path d="M100-194c62-1 85 37 85 99 1 63-27 99-86 99S16-35 15-95c0-66 28-99 85-99zM99-20c44 1 53-31 53-75 0-43-8-75-51-75s-53 32-53 75 10 74 51 75" id="Q"/><path d="M24 0v-261h32V0H24" id="R"/><g id="e"><use transform="matrix(0.05,0,0,0.05,0,0)" xlink:href="#N"/><use transform="matrix(0.05,0,0,0.05,9,0)" xlink:href="#O"/><use transform="matrix(0.05,0,0,0.05,19,0)" xlink:href="#P"/><use transform="matrix(0.05,0,0,0.05,29,0)" xlink:href="#w"/><use transform="matrix(0.05,0,0,0.05,34,0)" xlink:href="#Q"/><use transform="matrix(0.05,0,0,0.05,44,0)" xlink:href="#w"/><use transform="matrix(0.05,0,0,0.05,49,0)" xlink:href="#v"/><use transform="matrix(0.05,0,0,0.05,59,0)" xlink:href="#R"/></g><path d="M210-169c-67 3-38 105-44 169h-31v-121c0-29-5-50-35-48C34-165 62-65 56 0H25l-1-190h30c1 10-1 24 2 32 10-44 99-50 107 0 11-21 27-35 58-36 85-2 47 119 55 194h-31v-121c0-29-5-49-35-48" id="S"/><path d="M24-231v-30h32v30H24zM24 0v-190h32V0H24" id="T"/><g id="f"><use transform="matrix(0.05,0,0,0.05,0,0)" xlink:href="#z"/><use transform="matrix(0.05,0,0,0.05,9,0)" xlink:href="#O"/><use transform="matrix(0.05,0,0,0.05,19,0)" xlink:href="#N"/><use transform="matrix(0.05,0,0,0.05,28,0)" xlink:href="#w"/><use transform="matrix(0.05,0,0,0.05,33,0)" xlink:href="#Q"/><use transform="matrix(0.05,0,0,0.05,43,0)" xlink:href="#S"/><use transform="matrix(0.05,0,0,0.05,57.95,0)" xlink:href="#x"/><use transform="matrix(0.05,0,0,0.05,67.95,0)" xlink:href="#A"/><use transform="matrix(0.05,0,0,0.05,73.9,0)" xlink:href="#y"/><use transform="matrix(0.05,0,0,0.05,83.9,0)" xlink:href="#T"/><use transform="matrix(0.05,0,0,0.05,87.85000000000001,0)" xlink:href="#u"/></g><path fill="#333" d="M141-36C126-15 110 5 73 4 37 3 15-17 15-53c-1-64 63-63 125-63 3-35-9-54-41-54-24 1-41 7-42 31l-33-3c5-37 33-52 76-52 45 0 72 20 72 64v82c-1 20 7 32 28 27v20c-31 9-61-2-59-35zM48-53c0 20 12 33 32 33 41-3 63-29 60-74-43 2-92-5-92 41" id="U"/><path fill="#333" d="M24 0v-261h32V0H24" id="V"/><g id="g"><use transform="matrix(0.04938271604938272,0,0,0.04938271604938272,0,0)" xlink:href="#K"/><use transform="matrix(0.04938271604938272,0,0,0.04938271604938272,8.88888888888889,0)" xlink:href="#U"/><use transform="matrix(0.04938271604938272,0,0,0.04938271604938272,18.765432098765434,0)" xlink:href="#V"/><use transform="matrix(0.04938271604938272,0,0,0.04938271604938272,22.666666666666668,0)" xlink:href="#D"/><use transform="matrix(0.04938271604938272,0,0,0.04938271604938272,32.543209876543216,0)" xlink:href="#K"/><use transform="matrix(0.04938271604938272,0,0,0.04938271604938272,41.4320987654321,0)" xlink:href="#E"/><use transform="matrix(0.04938271604938272,0,0,0.04938271604938272,51.308641975308646,0)" xlink:href="#B"/><use transform="matrix(0.04938271604938272,0,0,0.04938271604938272,61.18518518518519,0)" xlink:href="#C"/><use transform="matrix(0.04938271604938272,0,0,0.04938271604938272,67.06172839506173,0)" xlink:href="#t"/><use transform="matrix(0.04938271604938272,0,0,0.04938271604938272,76.93827160493828,0)" xlink:href="#D"/><use transform="matrix(0.04938271604938272,0,0,0.04938271604938272,86.81481481481482,0)" xlink:href="#C"/><use transform="matrix(0.04938271604938272,0,0,0.04938271604938272,92.69135802469137,0)" xlink:href="#K"/></g><path fill="#333" d="M115-194c55 1 70 41 70 98S169 2 115 4C84 4 66-9 55-30l1 105H24l-1-265h31l2 30c10-21 28-34 59-34zm-8 174c40 0 45-34 45-75s-6-73-45-74c-42 0-51 32-51 76 0 43 10 73 51 73" id="W"/><g id="h"><use transform="matrix(0.05,0,0,0.05,0,0)" xlink:href="#W"/><use transform="matrix(0.05,0,0,0.05,10,0)" xlink:href="#C"/><use transform="matrix(0.05,0,0,0.05,15.949999999999998,0)" xlink:href="#s"/><use transform="matrix(0.05,0,0,0.05,19.9,0)" xlink:href="#J"/><use transform="matrix(0.05,0,0,0.05,28.899999999999995,0)" xlink:href="#D"/></g><path d="M145-31C134-9 116 4 85 4 32 4 16-35 15-94c0-59 17-99 70-100 32-1 48 14 60 33 0-11-1-24 2-32h30l-1 268h-32zM93-21c41 0 51-33 51-76s-8-73-50-73c-40 0-46 35-46 75s5 74 45 74" id="X"/><path d="M117-194c89-4 53 116 60 194h-32v-121c0-31-8-49-39-48C34-167 62-67 57 0H25l-1-190h30c1 10-1 24 2 32 11-22 29-35 61-36" id="Y"/><path d="M179-190L93 31C79 59 56 82 12 73V49c39 6 53-20 64-50L1-190h34L92-34l54-156h33" id="Z"/><g id="i"><use transform="matrix(0.05,0,0,0.05,0,0)" xlink:href="#X"/><use transform="matrix(0.05,0,0,0.05,10,0)" xlink:href="#O"/><use transform="matrix(0.05,0,0,0.05,20,0)" xlink:href="#v"/><use transform="matrix(0.05,0,0,0.05,30,0)" xlink:href="#Y"/><use transform="matrix(0.05,0,0,0.05,40,0)" xlink:href="#w"/><use transform="matrix(0.05,0,0,0.05,45,0)" xlink:href="#T"/><use transform="matrix(0.05,0,0,0.05,48.95,0)" xlink:href="#w"/><use transform="matrix(0.05,0,0,0.05,53.95,0)" xlink:href="#Z"/></g><path d="M115-194c55 1 70 41 70 98S169 2 115 4C84 4 66-9 55-30l1 105H24l-1-265h31l2 30c10-21 28-34 59-34zm-8 174c40 0 45-34 45-75s-6-73-45-74c-42 0-51 32-51 76 0 43 10 73 51 73" id="aa"/><g id="j"><use transform="matrix(0.05,0,0,0.05,0,0)" xlink:href="#aa"/><use transform="matrix(0.05,0,0,0.05,10,0)" xlink:href="#A"/><use transform="matrix(0.05,0,0,0.05,15.949999999999998,0)" xlink:href="#Q"/><use transform="matrix(0.05,0,0,0.05,25.950000000000003,0)" xlink:href="#u"/><use transform="matrix(0.05,0,0,0.05,35.95,0)" xlink:href="#O"/><use transform="matrix(0.05,0,0,0.05,45.95,0)" xlink:href="#z"/><use transform="matrix(0.05,0,0,0.05,54.95,0)" xlink:href="#w"/><use transform="matrix(0.05,0,0,0.05,59.95,0)" xlink:href="#y"/><use transform="matrix(0.05,0,0,0.05,69.95,0)" xlink:href="#T"/><use transform="matrix(0.05,0,0,0.05,73.9,0)" xlink:href="#u"/></g><g id="k"><use transform="matrix(0.05,0,0,0.05,0,0)" xlink:href="#T"/><use transform="matrix(0.05,0,0,0.05,3.95,0)" xlink:href="#w"/><use transform="matrix(0.05,0,0,0.05,8.95,0)" xlink:href="#x"/><use transform="matrix(0.05,0,0,0.05,18.95,0)" xlink:href="#S"/><use transform="matrix(0.05,0,0,0.05,33.9,0)" xlink:href="#v"/><use transform="matrix(0.05,0,0,0.05,43.9,0)" xlink:href="#P"/><use transform="matrix(0.05,0,0,0.05,53.900000000000006,0)" xlink:href="#R"/><use transform="matrix(0.05,0,0,0.05,57.85,0)" xlink:href="#x"/><use transform="matrix(0.05,0,0,0.05,67.85,0)" xlink:href="#y"/><use transform="matrix(0.05,0,0,0.05,77.85,0)" xlink:href="#T"/><use transform="matrix(0.05,0,0,0.05,81.8,0)" xlink:href="#u"/></g><g id="l"><use transform="matrix(0.05,0,0,0.05,0,0)" xlink:href="#T"/><use transform="matrix(0.05,0,0,0.05,3.95,0)" xlink:href="#w"/><use transform="matrix(0.05,0,0,0.05,8.95,0)" xlink:href="#x"/><use transform="matrix(0.05,0,0,0.05,18.95,0)" xlink:href="#S"/><use transform="matrix(0.05,0,0,0.05,33.9,0)" xlink:href="#v"/><use transform="matrix(0.05,0,0,0.05,43.9,0)" xlink:href="#P"/><use transform="matrix(0.05,0,0,0.05,53.900000000000006,0)" xlink:href="#R"/><use transform="matrix(0.05,0,0,0.05,57.85,0)" xlink:href="#x"/><use transform="matrix(0.05,0,0,0.05,67.85,0)" xlink:href="#y"/><use transform="matrix(0.05,0,0,0.05,77.85,0)" xlink:href="#w"/><use transform="matrix(0.05,0,0,0.05,82.85,0)" xlink:href="#Z"/><use transform="matrix(0.05,0,0,0.05,91.85,0)" xlink:href="#aa"/><use transform="matrix(0.05,0,0,0.05,101.85,0)" xlink:href="#x"/></g><g id="m"><use transform="matrix(0.04938271604938272,0,0,0.04938271604938272,0,0)" xlink:href="#K"/><use transform="matrix(0.04938271604938272,0,0,0.04938271604938272,8.88888888888889,0)" xlink:href="#U"/><use transform="matrix(0.04938271604938272,0,0,0.04938271604938272,18.765432098765434,0)" xlink:href="#V"/><use transform="matrix(0.04938271604938272,0,0,0.04938271604938272,22.666666666666668,0)" xlink:href="#D"/><use transform="matrix(0.04938271604938272,0,0,0.04938271604938272,32.543209876543216,0)" xlink:href="#K"/><use transform="matrix(0.04938271604938272,0,0,0.04938271604938272,41.4320987654321,0)" xlink:href="#E"/><use transform="matrix(0.04938271604938272,0,0,0.04938271604938272,51.308641975308646,0)" xlink:href="#V"/><use transform="matrix(0.04938271604938272,0,0,0.04938271604938272,55.20987654320988,0)" xlink:href="#s"/><use transform="matrix(0.04938271604938272,0,0,0.04938271604938272,59.111111111111114,0)" xlink:href="#F"/><use transform="matrix(0.04938271604938272,0,0,0.04938271604938272,68.98765432098766,0)" xlink:href="#D"/><use transform="matrix(0.04938271604938272,0,0,0.04938271604938272,78.8641975308642,0)" xlink:href="#K"/></g><path fill="#333" d="M108 0H70L1-190h34L89-25l56-165h34" id="ab"/><g id="n"><use transform="matrix(0.05,0,0,0.05,0,0)" xlink:href="#s"/><use transform="matrix(0.05,0,0,0.05,3.95,0)" xlink:href="#F"/><use transform="matrix(0.05,0,0,0.05,13.949999999999998,0)" xlink:href="#ab"/><use transform="matrix(0.05,0,0,0.05,22.95,0)" xlink:href="#B"/><use transform="matrix(0.05,0,0,0.05,32.95,0)" xlink:href="#s"/><use transform="matrix(0.05,0,0,0.05,36.900000000000006,0)" xlink:href="#J"/><use transform="matrix(0.05,0,0,0.05,45.900000000000006,0)" xlink:href="#D"/><use transform="matrix(0.05,0,0,0.05,55.900000000000006,0)" xlink:href="#E"/><use transform="matrix(0.05,0,0,0.05,65.9,0)" xlink:href="#F"/><use transform="matrix(0.05,0,0,0.05,75.9,0)" xlink:href="#G"/><use transform="matrix(0.05,0,0,0.05,85.9,0)" xlink:href="#H"/><use transform="matrix(0.05,0,0,0.05,100.85000000000001,0)" xlink:href="#I"/><use transform="matrix(0.05,0,0,0.05,110.85000000000001,0)" xlink:href="#D"/><use transform="matrix(0.05,0,0,0.05,120.85000000000001,0)" xlink:href="#C"/></g><g id="o"><use transform="matrix(0.05,0,0,0.05,0,0)" xlink:href="#N"/><use transform="matrix(0.05,0,0,0.05,9,0)" xlink:href="#v"/><use transform="matrix(0.05,0,0,0.05,19,0)" xlink:href="#R"/><use transform="matrix(0.05,0,0,0.05,22.95,0)" xlink:href="#x"/><use transform="matrix(0.05,0,0,0.05,32.95,0)" xlink:href="#N"/><use transform="matrix(0.05,0,0,0.05,41.95,0)" xlink:href="#y"/><use transform="matrix(0.05,0,0,0.05,51.95,0)" xlink:href="#Q"/><use transform="matrix(0.05,0,0,0.05,61.95,0)" xlink:href="#A"/><use transform="matrix(0.05,0,0,0.05,67.9,0)" xlink:href="#u"/><use transform="matrix(0.05,0,0,0.05,77.9,0)" xlink:href="#x"/><use transform="matrix(0.05,0,0,0.05,87.9,0)" xlink:href="#A"/><use transform="matrix(0.05,0,0,0.05,93.85000000000001,0)" xlink:href="#y"/><use transform="matrix(0.05,0,0,0.05,103.85000000000001,0)" xlink:href="#T"/><use transform="matrix(0.05,0,0,0.05,107.80000000000001,0)" xlink:href="#u"/></g><g id="p"><use transform="matrix(0.04938271604938272,0,0,0.04938271604938272,0,0)" xlink:href="#K"/><use transform="matrix(0.04938271604938272,0,0,0.04938271604938272,8.88888888888889,0)" xlink:href="#U"/><use transform="matrix(0.04938271604938272,0,0,0.04938271604938272,18.765432098765434,0)" xlink:href="#V"/><use transform="matrix(0.04938271604938272,0,0,0.04938271604938272,22.666666666666668,0)" xlink:href="#D"/><use transform="matrix(0.04938271604938272,0,0,0.04938271604938272,32.543209876543216,0)" xlink:href="#K"/><use transform="matrix(0.04938271604938272,0,0,0.04938271604938272,41.4320987654321,0)" xlink:href="#E"/><use transform="matrix(0.04938271604938272,0,0,0.04938271604938272,51.308641975308646,0)" xlink:href="#s"/><use transform="matrix(0.04938271604938272,0,0,0.04938271604938272,55.20987654320988,0)" xlink:href="#F"/><use transform="matrix(0.04938271604938272,0,0,0.04938271604938272,65.08641975308643,0)" xlink:href="#ab"/><use transform="matrix(0.04938271604938272,0,0,0.04938271604938272,73.97530864197532,0)" xlink:href="#B"/><use transform="matrix(0.04938271604938272,0,0,0.04938271604938272,83.85185185185186,0)" xlink:href="#s"/><use transform="matrix(0.04938271604938272,0,0,0.04938271604938272,87.7530864197531,0)" xlink:href="#J"/><use transform="matrix(0.04938271604938272,0,0,0.04938271604938272,96.64197530864199,0)" xlink:href="#D"/><use transform="matrix(0.04938271604938272,0,0,0.04938271604938272,106.51851851851853,0)" xlink:href="#K"/></g><g id="q"><use transform="matrix(0.05,0,0,0.05,0,0)" xlink:href="#J"/><use transform="matrix(0.05,0,0,0.05,9,0)" xlink:href="#C"/><use transform="matrix(0.05,0,0,0.05,14.949999999999998,0)" xlink:href="#D"/><use transform="matrix(0.05,0,0,0.05,24.95,0)" xlink:href="#t"/><use transform="matrix(0.05,0,0,0.05,34.95,0)" xlink:href="#s"/><use transform="matrix(0.05,0,0,0.05,38.900000000000006,0)" xlink:href="#L"/><use transform="matrix(0.05,0,0,0.05,43.900000000000006,0)" xlink:href="#E"/><use transform="matrix(0.05,0,0,0.05,53.900000000000006,0)" xlink:href="#F"/><use transform="matrix(0.05,0,0,0.05,63.900000000000006,0)" xlink:href="#B"/><use transform="matrix(0.05,0,0,0.05,73.9,0)" xlink:href="#L"/><use transform="matrix(0.05,0,0,0.05,78.9,0)" xlink:href="#D"/><use transform="matrix(0.05,0,0,0.05,88.9,0)" xlink:href="#E"/><use transform="matrix(0.05,0,0,0.05,98.9,0)" xlink:href="#F"/><use transform="matrix(0.05,0,0,0.05,108.9,0)" xlink:href="#G"/><use transform="matrix(0.05,0,0,0.05,118.9,0)" xlink:href="#H"/><use transform="matrix(0.05,0,0,0.05,133.85,0)" xlink:href="#I"/><use transform="matrix(0.05,0,0,0.05,143.85,0)" xlink:href="#D"/><use transform="matrix(0.05,0,0,0.05,153.85,0)" xlink:href="#C"/></g><g id="r"><use transform="matrix(0.04938271604938272,0,0,0.04938271604938272,0,0)" xlink:href="#K"/><use transform="matrix(0.04938271604938272,0,0,0.04938271604938272,8.88888888888889,0)" xlink:href="#U"/><use transform="matrix(0.04938271604938272,0,0,0.04938271604938272,18.765432098765434,0)" xlink:href="#V"/><use transform="matrix(0.04938271604938272,0,0,0.04938271604938272,22.666666666666668,0)" xlink:href="#D"/><use transform="matrix(0.04938271604938272,0,0,0.04938271604938272,32.543209876543216,0)" xlink:href="#K"/><use transform="matrix(0.04938271604938272,0,0,0.04938271604938272,41.4320987654321,0)" xlink:href="#E"/><use transform="matrix(0.04938271604938272,0,0,0.04938271604938272,51.308641975308646,0)" xlink:href="#J"/><use transform="matrix(0.04938271604938272,0,0,0.04938271604938272,60.19753086419754,0)" xlink:href="#C"/><use transform="matrix(0.04938271604938272,0,0,0.04938271604938272,66.07407407407408,0)" xlink:href="#D"/><use transform="matrix(0.04938271604938272,0,0,0.04938271604938272,75.95061728395062,0)" xlink:href="#t"/><use transform="matrix(0.04938271604938272,0,0,0.04938271604938272,85.82716049382717,0)" xlink:href="#s"/><use transform="matrix(0.04938271604938272,0,0,0.04938271604938272,89.7283950617284,0)" xlink:href="#L"/><use transform="matrix(0.04938271604938272,0,0,0.04938271604938272,94.66666666666669,0)" xlink:href="#E"/><use transform="matrix(0.04938271604938272,0,0,0.04938271604938272,104.54320987654324,0)" xlink:href="#F"/><use transform="matrix(0.04938271604938272,0,0,0.04938271604938272,114.41975308641979,0)" xlink:href="#B"/><use transform="matrix(0.04938271604938272,0,0,0.04938271604938272,124.29629629629633,0)" xlink:href="#L"/><use transform="matrix(0.04938271604938272,0,0,0.04938271604938272,129.23456790123458,0)" xlink:href="#D"/><use transform="matrix(0.04938271604938272,0,0,0.04938271604938272,139.11111111111114,0)" xlink:href="#K"/></g></defs></g></svg>